HIERARCHY
ROOT Hips
{
	OFFSET 0.00000 0.00000 0.00000
	CHANNELS 6 Xposition Yposition Zposition Zrotation Yrotation Xrotation 
	JOINT LHipJoint
	{
		OFFSET 0 0 0
		CHANNELS 3 Zrotation Yrotation Xrotation
		JOINT LeftUpLeg
		{
			OFFSET 1.44960 -1.75505 0.85172
			CHANNELS 3 Zrotation Yrotation Xrotation
			JOINT LeftLeg
			{
				OFFSET 2.40573 -6.60971 0.00000
				CHANNELS 3 Zrotation Yrotation Xrotation
				JOINT LeftFoot
				{
					OFFSET 2.58773 -7.10974 0.00000
					CHANNELS 3 Zrotation Yrotation Xrotation
					JOINT LeftToeBase
					{
						OFFSET 0.18252 -0.50147 1.77316
						CHANNELS 3 Zrotation Yrotation Xrotation
						End Site
						{
							OFFSET 0.00000 -0.00000 0.92990
						}
					}
				}
			}
		}
	}
	JOINT RHipJoint
	{
		OFFSET 0 0 0
		CHANNELS 3 Zrotation Yrotation Xrotation
		JOINT RightUpLeg
		{
			OFFSET -1.40744 -1.75505 0.85172
			CHANNELS 3 Zrotation Yrotation Xrotation
			JOINT RightLeg
			{
				OFFSET -2.43714 -6.69600 0.00000
				CHANNELS 3 Zrotation Yrotation Xrotation
				JOINT RightFoot
				{
					OFFSET -2.51650 -6.91404 0.00000
					CHANNELS 3 Zrotation Yrotation Xrotation
					JOINT RightToeBase
					{
						OFFSET -0.25383 -0.69740 1.96384
						CHANNELS 3 Zrotation Yrotation Xrotation
						End Site
						{
							OFFSET -0.00000 -0.00000 1.04244
						}
					}
				}
			}
		}
	}
	JOINT LowerBack
	{
		OFFSET 0 0 0
		CHANNELS 3 Zrotation Yrotation Xrotation
		JOINT Spine
		{
			OFFSET 0.00579 2.14458 -0.24367
			CHANNELS 3 Zrotation Yrotation Xrotation
			JOINT Spine1
			{
				OFFSET 0.05899 2.16316 -0.04515
				CHANNELS 3 Zrotation Yrotation Xrotation
				JOINT Neck
				{
					OFFSET 0 0 0
					CHANNELS 3 Zrotation Yrotation Xrotation
					JOINT Neck1
					{
						OFFSET -0.01650 1.59577 0.24841
						CHANNELS 3 Zrotation Yrotation Xrotation
						JOINT Head
						{
							OFFSET -0.01016 1.63072 -0.17782
							CHANNELS 3 Zrotation Yrotation Xrotation
							End Site
							{
								OFFSET -0.00250 1.64111 -0.08717
							}
						}
					}
				}
				JOINT LeftShoulder
				{
					OFFSET 0 0 0
					CHANNELS 3 Zrotation Yrotation Xrotation
					JOINT LeftArm
					{
						OFFSET 3.17745 0.95174 -0.45729
						CHANNELS 3 Zrotation Yrotation Xrotation
						JOINT LeftForeArm
						{
							OFFSET 4.93485 -0.00000 0.00000
							CHANNELS 3 Zrotation Yrotation Xrotation
							JOINT LeftHand
							{
								OFFSET 3.41719 -0.00000 -0.00000
								CHANNELS 3 Zrotation Yrotation Xrotation
								JOINT LeftFingerBase
								{
									OFFSET 0 0 0
									CHANNELS 3 Zrotation Yrotation Xrotation
									JOINT LeftHandIndex1
									{
										OFFSET 0.62410 -0.00000 -0.00000
										CHANNELS 3 Zrotation Yrotation Xrotation
										End Site
										{
											OFFSET 0.50317 -0.00000 -0.00000
										}
									}
								}
								JOINT LThumb
								{
									OFFSET 0 0 0
									CHANNELS 3 Zrotation Yrotation Xrotation
									End Site
									{
										OFFSET 0.51085 -0.00000 0.51085
									}
								}
							}
						}
					}
				}
				JOINT RightShoulder
				{
					OFFSET 0 0 0
					CHANNELS 3 Zrotation Yrotation Xrotation
					JOINT RightArm
					{
						OFFSET -2.87924 1.13038 -0.75204
						CHANNELS 3 Zrotation Yrotation Xrotation
						JOINT RightForeArm
						{
							OFFSET -5.22034 -0.00000 0.00000
							CHANNELS 3 Zrotation Yrotation Xrotation
							JOINT RightHand
							{
								OFFSET -3.41809 -0.00000 -0.00000
								CHANNELS 3 Zrotation Yrotation Xrotation
								JOINT RightFingerBase
								{
									OFFSET 0 0 0
									CHANNELS 3 Zrotation Yrotation Xrotation
									JOINT RightHandIndex1
									{
										OFFSET -0.77534 -0.00000 -0.00000
										CHANNELS 3 Zrotation Yrotation Xrotation
										End Site
										{
											OFFSET -0.62510 -0.00000 -0.00000
										}
									}
								}
								JOINT RThumb
								{
									OFFSET 0 0 0
									CHANNELS 3 Zrotation Yrotation Xrotation
									End Site
									{
										OFFSET -0.63464 -0.00000 0.63464
									}
								}
							}
						}
					}
				}
			}
		}
	}
}
MOTION
Frames: 14
Frame Time: .0083333
0.3036 17.4755 -36.1851 0 0 0 0 0 0 -21 0 0 0 0 0 0 0 0 0 0 0 0 0 0 21 0 0 0 0 0 0 0 0 0 0 0 0 0 0 0 0 0 0 0 0 0 0 -16 0 0 21 0 0 11 0 0 0 -8 0 0 0 0 0 0 0 0 0 0 0 0 0 0 0 0 0 0 0 0 8 0 0 0 0 0 0 0 0 0 0 0 0 0 0 0 0 0
0.3036 17.4755 -36.1851 -3.2606 1.3655 3.7745 0.0000 0.0000 0.0000 -14.2384 -10.5745 -10.3407 2.7681 10.3099 29.9861 1.3636 -1.7356 -21.5805 0.0349 1.2052 3.3137 0.0000 0.0000 0.0000 25.5883 2.5374 -9.2599 -1.7769 -8.3851 23.8900 -1.1662 1.6996 -19.9210 -0.0000 -0.0000 0.0000 3.9221 -2.3550 1.6445 1.5045 -2.9466 -3.0896 -0.4805 -1.5652 -4.2317 -5.9463 -9.0469 -10.3898 4.7722 -12.0874 13.5776 1.3694 -5.8042 6.4873 0.0000 -0.0000 0.0000 -87.9526 9.7909 11.4665 14.5600 -23.5296 -3.0481 -0.0000 -0.0000 9.7532 2.0653 41.9502 1.3810 -7.1250 0.0000 -0.0000 -46.0513 66.3387 -25.9700 0.0000 -0.0000 0.0000 83.2626 1.4713 10.3383 -14.2037 23.0251 -2.9073 0.0000 -0.0000 -15.0934 -20.3148 17.8701 -6.4811 7.1250 -0.0000 -0.0000 5.0522 -11.0641 4.0047
0.3108 17.4699 -36.1808 -3.2689 1.5155 3.8121 0.0000 0.0000 0.0000 -14.2412 -10.6287 -10.2938 2.7056 10.2025 29.6349 1.3024 -1.4880 -21.1408 0.0296 1.1100 3.0514 0.0000 0.0000 0.0000 25.5934 2.4810 -9.4173 -1.8176 -8.4754 24.1675 -1.1923 1.6753 -20.1557 -0.0000 -0.0000 0.0000 3.9221 -2.3550 1.6445 1.5045 -2.9466 -3.0896 -0.4805 -1.5652 -4.2317 -5.9463 -9.0469 -10.3898 4.7722 -12.0874 13.5776 1.3694 -5.8042 6.4873 0.0000 -0.0000 0.0000 -87.9526 9.7909 11.4665 14.5600 -23.5296 -3.0481 -0.0000 -0.0000 9.7532 2.0653 41.9502 1.3810 -7.1250 0.0000 -0.0000 -46.0513 66.3387 -25.9700 0.0000 -0.0000 0.0000 83.2626 1.4713 10.3383 -14.2037 23.0251 -2.9073 0.0000 -0.0000 -15.0934 -20.3148 17.8701 -6.4811 7.1250 -0.0000 -0.0000 5.0522 -11.0641 4.0047
0.3210 17.4698 -36.1666 -3.1278 1.8887 4.0130 0.0000 0.0000 0.0000 -14.4056 -10.7341 -10.3759 2.6731 10.1461 29.4511 1.3153 -1.6607 -21.2024 0.0101 0.6489 1.7831 0.0000 0.0000 0.0000 25.4043 2.4156 -9.6524 -1.8238 -8.4889 24.2093 -1.2069 1.5371 -20.3176 -0.0000 -0.0000 0.0000 3.7776 -2.4681 1.1897 1.5248 -3.1195 -3.2902 -0.3847 -1.6483 -4.1801 -5.9362 -9.1629 -10.2793 4.4883 -12.2261 13.8999 1.2634 -5.8917 6.5600 0.0000 -0.0000 0.0000 -87.8395 9.5422 11.7110 14.5512 -23.5172 -3.0446 -0.0000 -0.0000 9.7939 1.9709 41.5805 1.3083 -7.1250 0.0000 -0.0000 -45.5283 66.0561 -25.3399 0.0000 -0.0000 0.0000 83.3780 0.9294 10.3625 -14.3091 23.1748 -2.9486 0.0000 -0.0000 -15.0264 -20.2586 17.4053 -6.3003 7.1250 -0.0000 -0.0000 5.0620 -11.5580 3.9610
0.3225 17.4693 -36.1605 -3.1962 1.8670 4.0510 0.0000 0.0000 0.0000 -14.3203 -10.5715 -10.3650 2.6273 10.0657 29.1898 1.3290 -1.5481 -21.3454 0.0002 0.0877 0.2411 0.0000 0.0000 0.0000 25.4935 2.7236 -9.6086 -1.8460 -8.5377 24.3595 -1.2299 1.3487 -20.5661 -0.0348 -1.2042 3.3108 2.7420 -2.3560 1.1004 2.3633 -2.9808 -3.2428 1.0390 -1.5303 -3.9730 -6.4324 -9.2149 -10.7505 3.7527 -12.0567 13.8453 1.1060 -5.8824 6.5981 0.0000 -0.0000 0.0000 -89.0158 8.6948 11.3047 14.2158 -23.0424 -2.9121 -0.0000 -0.0000 10.4802 2.5411 41.2156 1.6750 -7.1250 0.0000 -0.0000 -44.3930 65.9697 -24.5132 0.0000 -0.0000 0.0000 82.1070 0.8202 10.7709 -14.4628 23.3924 -3.0094 0.0000 -0.0000 -15.5944 -20.8529 16.9650 -6.3423 7.1250 -0.0000 -0.0000 4.6430 -11.9459 3.5935
0.3295 17.4732 -36.1510 -3.1031 2.0638 4.1504 0.0000 0.0000 0.0000 -14.4170 -10.4692 -10.3676 2.5911 10.0016 28.9820 1.3120 -1.8970 -21.1158 0.0147 0.7816 2.1482 0.0000 0.0000 0.0000 25.3731 2.8571 -9.6652 -1.8497 -8.5457 24.3841 -1.2347 1.1426 -20.6636 -0.0612 -1.5959 4.3902 2.3642 -2.3906 0.7088 2.5257 -3.0560 -3.0491 1.3930 -1.5521 -3.5211 -6.6664 -9.2311 -11.0793 3.9160 -12.0390 13.7694 1.1795 -5.8662 6.6540 0.0000 -0.0000 0.0000 -89.1554 7.8597 11.2422 14.0546 -22.8127 -2.8492 -0.0000 -0.0000 10.6350 2.4960 41.1200 1.6421 -7.1250 0.0000 -0.0000 -44.2828 65.8890 -24.3628 0.0000 -0.0000 0.0000 81.9061 1.2825 10.6795 -14.3002 23.1622 -2.9452 0.0000 -0.0000 -15.7481 -20.7062 17.6100 -6.5238 7.1250 -0.0000 -0.0000 4.7788 -11.2866 3.7645
0.3381 17.4691 -36.1399 -2.8967 2.0673 4.2150 0.0000 0.0000 0.0000 -14.7196 -10.1273 -10.4413 2.5533 9.9342 28.7639 1.3080 -1.4719 -21.1912 0.0162 -0.8213 -2.2573 0.0000 0.0000 0.0000 25.1139 2.8142 -9.6650 -1.8525 -8.5519 24.4034 -1.2478 1.2182 -20.7541 -0.0939 -1.9766 5.4410 1.8167 -2.4070 0.4298 2.7448 -3.0985 -2.9772 1.9078 -1.5552 -3.2468 -6.9778 -9.2258 -11.2444 3.8050 -11.9494 13.8397 1.1915 -5.8437 6.7126 -0.0000 0.0000 0.0000 -89.5279 7.4843 11.1880 14.0907 -22.8642 -2.8632 -0.0000 -0.0000 10.8131 2.1581 41.0114 1.4165 -7.1250 0.0000 -0.0000 -44.4338 65.7136 -24.2876 -0.0000 0.0000 0.0000 81.6387 1.3259 10.6582 -14.2415 23.0789 -2.9221 0.0000 -0.0000 -15.6306 -20.9209 17.5182 -6.5641 7.1250 -0.0000 -0.0000 4.6315 -11.3554 3.6411
0.3489 17.4769 -36.1299 -2.8019 2.1855 4.3268 0.0000 0.0000 0.0000 -14.8508 -10.2214 -10.4350 2.5283 9.8892 28.6188 1.3010 -1.7056 -21.0723 0.0003 -0.1046 -0.2874 0.0000 0.0000 0.0000 24.9796 2.8411 -9.7136 -1.8414 -8.5276 24.3284 -1.2515 1.0988 -20.8193 -0.1127 -2.1641 5.9594 1.5872 -2.3651 0.1630 2.8257 -3.0532 -3.0191 2.1056 -1.5258 -3.1239 -7.0374 -9.3456 -11.3147 3.6221 -12.0787 14.0958 1.1197 -5.9210 6.8063 0.0000 -0.0000 0.0000 -89.5703 7.2991 11.6881 14.1201 -22.9062 -2.8747 -0.0000 -0.0000 10.6340 2.9837 40.7162 1.9473 -7.1250 0.0000 -0.0000 -43.1750 65.7444 -23.5128 0.0000 -0.0000 0.0000 81.4769 0.9719 11.2788 -14.3594 23.2461 -2.9685 0.0000 -0.0000 -16.3916 -20.9819 17.0795 -6.4263 7.1250 -0.0000 -0.0000 4.5643 -11.8093 3.5451
0.3644 17.4831 -36.1168 -3.0058 2.3578 4.4383 0.0000 0.0000 0.0000 -14.7047 -10.4620 -10.3205 2.4968 9.8320 28.4344 1.2903 -1.4613 -21.0472 0.0041 -0.4157 -1.1422 0.0000 0.0000 0.0000 25.1541 2.7995 -9.8049 -1.8438 -8.5328 24.3444 -1.2548 1.0267 -20.8682 -0.1186 -2.2207 6.1159 1.8683 -2.3744 -0.0702 2.8593 -3.0646 -3.1081 1.9758 -1.5384 -3.0975 -6.9395 -9.4235 -11.5551 3.2810 -12.1518 14.6371 0.9663 -5.9723 6.9981 0.0000 -0.0000 0.0000 -89.4597 6.9631 11.6192 13.9746 -22.6984 -2.8183 -0.0000 -0.0000 10.7803 3.1939 40.1401 2.0602 -7.1250 0.0000 -0.0000 -42.0854 65.3885 -22.4893 0.0000 -0.0000 0.0000 81.7056 0.8167 10.7519 -14.2151 23.0414 -2.9118 0.0000 -0.0000 -15.9038 -20.7123 17.5903 -6.5189 7.1250 -0.0000 -0.0000 4.7735 -11.3065 3.7584
0.3734 17.4781 -36.1138 -3.1093 2.3391 4.5187 0.0000 0.0000 0.0000 -14.6517 -10.4254 -10.3467 2.4847 9.8099 28.3634 1.2875 -1.2115 -21.0916 0.0089 -0.6091 -1.6739 0.0000 0.0000 0.0000 25.2228 2.8921 -9.8365 -1.8260 -8.4938 24.2244 -1.2428 0.9746 -20.7808 -0.1346 -2.3643 6.5135 2.2451 -2.4022 0.1116 2.7042 -3.0825 -3.3793 1.6262 -1.5605 -3.5098 -7.1619 -9.2250 -11.3176 3.7762 -11.9507 14.7485 1.1859 -5.8511 7.0289 0.0000 -0.0000 0.0000 -89.0810 7.1613 11.8983 14.1198 -22.9057 -2.8746 -0.0000 -0.0000 10.3765 3.0598 41.2733 2.0195 -7.1250 0.0000 -0.0000 -43.9882 66.1634 -24.4397 0.0000 -0.0000 0.0000 82.1642 0.4020 10.6840 -13.9859 22.7146 -2.8227 0.0000 -0.0000 -15.1938 -20.8644 17.8583 -6.6668 7.1250 -0.0000 -0.0000 4.6901 -11.0053 3.7213
0.3845 17.4853 -36.1062 -2.9557 2.3970 4.5431 0.0000 0.0000 0.0000 -14.8899 -10.5462 -10.2360 2.4633 9.7709 28.2378 1.3007 -1.0395 -21.2503 0.0300 -1.1181 -3.0737 0.0000 0.0000 0.0000 25.0292 2.8023 -9.8048 -1.8237 -8.4888 24.2089 -1.2466 0.9247 -20.8277 -0.1414 -2.4238 6.6784 2.3216 -2.5009 0.3300 2.5031 -3.2019 -3.6304 1.4013 -1.6269 -3.9087 -6.7864 -9.0647 -11.1906 3.4898 -11.7675 14.9374 1.0626 -5.7692 7.0165 0.0000 0.0000 0.0000 -88.8242 7.4771 11.8163 14.2991 -23.1607 -2.9447 -0.0000 -0.0000 10.4056 3.7912 40.2986 2.4541 -7.1250 0.0000 -0.0000 -41.7431 65.6767 -22.5465 0.0000 0.0000 0.0000 82.6244 0.0450 10.8261 -13.8330 22.4955 -2.7639 0.0000 -0.0000 -14.9584 -20.7020 17.8492 -6.6074 7.1250 -0.0000 -0.0000 4.7963 -11.0360 3.8032
0.3895 17.4829 -36.1031 -2.9243 2.3222 4.5907 0.0000 0.0000 0.0000 -14.9544 -10.3896 -10.2192 2.4454 9.7380 28.1323 1.2846 -1.0082 -21.1252 0.0170 -0.8430 -2.3170 0.0000 0.0000 0.0000 24.9662 2.9506 -9.8515 -1.8258 -8.4934 24.2230 -1.2358 0.7838 -20.7779 -0.1702 -2.6578 7.3275 2.1492 -2.5122 0.2678 2.5855 -3.2226 -3.5911 1.5778 -1.6303 -3.8179 -7.1540 -9.0189 -11.6207 3.7493 -11.6630 15.1613 1.1863 -5.7079 7.1970 0.0000 0.0000 0.0000 -88.8378 7.0450 11.8522 14.3317 -23.2069 -2.9576 -0.0000 -0.0000 9.9470 3.6394 40.7227 2.3762 -7.1250 0.0000 -0.0000 -42.5491 65.9407 -23.3023 0.0000 0.0000 0.0000 82.6043 -0.0232 11.0435 -13.7650 22.3977 -2.7379 0.0000 -0.0000 -14.9996 -20.8449 17.6099 -6.5711 7.1250 -0.0000 -0.0000 4.6873 -11.2688 3.6937
0.3987 17.4900 -36.0935 -2.8492 2.6736 4.7194 0.0000 0.0000 0.0000 -15.0025 -10.4734 -10.3349 2.4186 9.6884 27.9736 1.2786 -1.2996 -20.9923 0.0191 -0.8915 -2.4504 0.0000 0.0000 0.0000 24.8909 2.8701 -10.0060 -1.8357 -8.5151 24.2900 -1.2527 0.5295 -20.9998 -0.1702 -2.6574 7.3263 1.6569 -2.5126 -0.0479 2.7985 -3.2321 -3.8215 2.0635 -1.6162 -3.8385 -7.2316 -8.9701 -10.8824 3.3558 -11.5747 15.3272 1.1139 -5.7168 7.0997 -0.0000 0.0000 0.0000 -89.1010 7.0995 12.1627 14.2701 -23.1196 -2.9333 -0.0000 -0.0000 10.1194 3.5727 40.0066 2.2985 -7.1250 0.0000 -0.0000 -41.5143 65.3995 -22.1458 -0.0000 0.0000 0.0000 82.3227 -0.7624 11.2717 -13.7697 22.4045 -2.7397 0.0000 -0.0000 -15.0832 -20.6511 17.6973 -6.5359 7.1250 -0.0000 -0.0000 4.8204 -11.2020 3.8060
0.4087 17.4857 -36.0884 -2.8606 2.5684 4.6938 0.0000 0.0000 0.0000 -15.0446 -10.3043 -10.2217 2.4005 9.6546 27.8654 1.2870 -1.3512 -21.0491 0.0142 -0.7695 -2.1148 0.0000 0.0000 0.0000 24.8891 2.9731 -9.9546 -1.8400 -8.5245 24.3189 -1.2473 0.3015 -21.0263 -0.1468 -2.4687 6.8029 1.4396 -2.4750 -0.1230 2.9731 -3.1863 -3.7415 2.3559 -1.5841 -3.6921 -7.2887 -8.9119 -11.3130 3.1908 -11.4271 15.4674 1.0643 -5.6550 7.2053 0.0000 0.0000 0.0000 -89.3648 6.7344 12.2847 14.5461 -23.5100 -3.0426 -0.0000 -0.0000 9.9706 2.9781 41.7400 1.9837 -7.1250 0.0000 -0.0000 -44.8331 66.4665 -25.2889 0.0000 0.0000 0.0000 82.2902 -0.5858 10.8473 -13.5586 22.1002 -2.6598 0.0000 -0.0000 -14.7806 -20.5347 17.6566 -6.4817 7.1250 -0.0000 -0.0000 4.8947 -11.2597 3.8592
